<svg width="512" height="512" viewBox="0 0 512 512" xmlns="http://www.w3.org/2000/svg">
  <!-- Background -->
  <rect width="512" height="512" fill="#0a1428" rx="80"/>
  
  <!-- AR Letters -->
  <g fill="#00d4ff">
    <!-- A -->
    <path d="M 120 380 L 180 160 L 200 160 L 260 380 L 235 380 L 220 320 L 160 320 L 145 380 Z M 168 295 L 212 295 L 190 200 Z"/>
    
    <!-- R -->
    <path d="M 280 380 L 280 160 L 340 160 Q 370 160 385 175 Q 400 190 400 220 Q 400 240 390 255 Q 380 270 360 275 L 410 380 L 380 380 L 335 280 L 305 280 L 305 380 Z M 305 255 L 340 255 Q 360 255 370 245 Q 380 235 380 220 Q 380 205 370 195 Q 360 185 340 185 L 305 185 Z"/>
  </g>
  
  <!-- Accent line -->
  <rect x="120" y="420" width="290" height="6" fill="#00d4ff" opacity="0.6"/>
</svg>
